<?xml version="1.0" encoding="UTF-8"?><svg xmlns="http://www.w3.org/2000/svg" viewBox="0 0 594.73 932.92"><defs><style>.cls-1{fill:#74b958;}.cls-1,.cls-2,.cls-3{stroke-width:0px;}.cls-2{fill:#589ed5;}.cls-3{fill:#5b5b5c;}</style></defs><g id="Capa_1"><path class="cls-2" d="m254.15,915.21c.35-19.41-.13-38.8.73-58.24,1.21-27.22,3.77-54.35,4.77-81.61.99-27,3.09-54.13,4.76-81.19,1.96-31.79,3.99-63.59,4.74-95.42,1.36-57.46,7.5-114.65,9.05-172.09.13-4.84,2.07-6.23,6.66-6.21,5.51.02,11.21.75,19-1.61-7.08-4.05-12.53-2.34-17.62-2.66-3.39-.21-6.87.53-6.73-4.83.13-5.21,3.38-4.61,6.89-4.63,17.61-.15,17.62-.21,18.62,18.64,1.03,19.49,2.13,38.98,3.03,58.47,2.1,45.41,4.01,90.82,6.18,136.22,3.64,76.16,7.35,152.32,11.17,228.48,1.11,22.22,3.36,44.4,2.89,66.69-2.03.5-4.07,1.41-6.11,1.43-18.83.16-37.67.18-56.51.21-3.91,0-7.95.7-11.53-1.64h0Z"/><path class="cls-3" d="m254.15,915.21c3.59,2.35,7.62,1.65,11.53,1.64,18.84-.03,37.67-.05,56.51-.21,2.04-.02,4.07-.93,6.11-1.43,16.45,1.21,32.89.11,49.29-.71,5.61-.28,8.16.16,6.65,6.33-.35,1.45-.44,3.09-.15,4.54,1.23,6.14-1.02,7.49-7.22,7.37-32.32-.66-64.65-.9-96.97-.93-24.4-.02-48.83-.25-73.17,1.07-12.06.65-7.27-6.84-8.11-12.06-1.13-7.06,2.69-6.53,8.04-6.3,15.81.68,31.66.52,47.49.68h0Z"/><path class="cls-1" d="m291.14,396.54c-16.67.12-29.42-13.04-29.67-30.64-.22-15.65,13.92-29.46,30.2-29.49,15.52-.03,29.83,13.9,29.77,28.98-.07,17.93-12.8,31.02-30.31,31.15h.01Z"/></g><g id="elise"><path class="cls-2" d="m244.4,245.1c4.16-34.22,8.22-66.91,12.1-99.62,3.32-28.05,5.87-56.21,9.86-84.16,2.36-16.54,5.47-32.98,7.15-49.64.65-6.42,6.19-8.87,11.06-11.1,4.83-2.21,4.76,2.43,5,5.12.83,9.41,1.14,18.87,1.92,28.29,4.41,53.78,8.84,107.56,13.4,161.32,1.7,20.04,3.38,40.11,5.82,60.07,1.95,15.87-3.52,30.74-4.8,46.15-.58,6.97-2.44,13.83-3.02,20.8-.46,5.57-2.18,8.25-8.34,7.88-6.19-.37-14.12,2.79-18.2-.04-4.37-3.03-5.22-11.21-7.49-17.19-7.75-20.46-15.4-40.96-23.25-61.38-1.04-2.7-1.5-5.22-1.21-6.48v-.02Z"/><path class="cls-2" d="m594.73,552.3c-1.66,3.33-2.63,8.63-8.71,4.84-25.19-15.73-52.4-27.71-78.27-42.24-42.46-23.85-86.06-45.68-129.19-68.32-12.1-6.35-19.85-17.62-29.77-26.42-8.88-7.87-16.43-17.22-25.02-25.43-3.06-2.92-3.49-4.67-1.44-8.39,8.79-15.98,8.64-16.03,26.69-11.36,17.13,4.43,34.1,9.75,51.47,12.88,14.44,2.6,24.72,10.68,34.97,19.92,43.53,39.24,87.19,78.35,130.86,117.44,7.96,7.12,16.24,13.89,24.3,20.9,1.78,1.55,4.15,2.8,4.11,6.19h0Z"/><path class="cls-2" d="m265.38,394.97c-1.21,1.7-2.23,3.16-3.29,4.59-13.77,18.64-27.59,37.25-41.29,55.93-3.15,4.29-7.1,7.48-11.68,10.08-65.81,37.36-131.59,74.76-197.45,112.02-2.92,1.65-6.16,6.06-10.09.65-3.77-5.19,0-7.91,3.09-10.7,29.64-26.81,59.3-53.6,89.05-80.29,32.48-29.14,65.1-58.12,97.55-87.29,3.7-3.32,7.43-6.17,12.21-7.77,15.05-5.03,29.99-10.41,44.39-17.12,4.33-2.02,6.58-1.63,7.76,3.41,1.05,4.47,3.28,8.49,6.62,11.85,1.23,1.24,1.99,2.94,3.12,4.65h.01Z"/></g></svg>